<svg xmlns="http://www.w3.org/2000/svg" version="1.2" baseProfile="tiny" width="100" height="100" viewBox="0 0 100 100"><path d="M96.37 50c0-8.86-2.504-17.148-6.837-24.194V17.79h-6.236C74.87 9.094 63.08 3.673 50.044 3.673S25.22 9.093 16.792 17.79h-5.796v7.33C6.396 32.314 3.718 40.85 3.718 50s2.68 17.687 7.278 24.88v21.447h78.537V74.194C93.866 67.148 96.37 58.86 96.37 50zm-2.458 0c0 6.84-1.575 13.317-4.38 19.093V30.907c2.805 5.776 4.38 12.253 4.38 19.093zM75.94 85.38c-.772-1.06-2.33-.92-3.137-.84-.347.035-.773.145-1.216.267-.347.096-.93.256-1.01.266-.156-.092-.488-.538-.667-.776-.123-.164-.24-.32-.354-.46-.41-.5-.68-1.125-.903-2.09-.114-.5-.198-.964-.28-1.408-.263-1.438-.51-2.793-1.53-4.38-.3-.466-.627-.922-.955-1.38-.787-1.09-1.53-2.122-1.842-3.295l-.396-3.417c-.267-1.06-1.135-3.988-1.327-4.77-.233-.953-.717-1.75-1.144-2.454-.37-.61-.72-1.184-.862-1.77-.207-.862-.63-1.627-1-2.3-.437-.787-.813-1.467-.812-2.14.005-1.36-.258-2.6-.514-3.8-.204-.966-.396-1.877-.45-2.823-.033-.532-.1-1.036-.165-1.533-.11-.822-.195-1.537-.104-2.312.006-.05.01-.098.02-.147.086-.56.33-1.108.596-1.688.275-.604.562-1.23.717-1.955.135-.635.07-1.21-.05-1.73.064-.19.134-.363.203-.433.658-.646 3.297-.67 4.29-.68.798-.006 1.62-.08 2.44-.16.526-.05 1.036-.097 1.532-.124l1.233.383c1.45.453 3.428.327 5.018.228l.624-.037c.936-.05 1.747-.312 2.465-.546.604-.194 1.172-.38 1.738-.414.554-.034 1.11-.033 1.656-.026 1.047 0 2.106.01 3.197-.21.514-.103 1.087-.116 1.693-.13l.53-.017c.488-.018.877-.117 1.19-.195.18-.046.36-.096.565-.11l.142-.01v37.515c-2.94 4.625-6.723 8.667-11.133 11.904zm11.134-55.054c-.182-.23-.43-.434-.774-.63-.47-.268-1.386-.568-2.005-.59-.718-.005-1.246.268-1.58.462-.092.056-.19.112-.244.13-.182.06-.386.108-.593.16-.337.08-.68.166-1.003.283-.403.147-.785.332-1.16.516-.455.226-.85.42-1.225.49-1.417.27-3.063.175-4.657.078-.848-.05-1.687-.097-2.494-.097h-.015c.386-.145.766-.293 1.15-.45.468-.19.95-.387 1.48-.577 1.417-.506 2.498-1.34 3.542-2.147l.69-.525c.472-.353 1.06-.51 1.744-.692.78-.205 1.663-.44 2.458-1.03.262-.197.46-.396.65-.592.21-.22.285-.29.44-.352.42-.166 1.008-.29 1.527-.4l.52-.112c.54.74 1.053 1.5 1.547 2.276v3.8zm-18.27 4.277c-1.17-.107-2.378.012-3.542.12-.752.07-1.506.144-2.36.152-.63.006-1.28.024-1.92.072.015-.01.034-.03.046-.037.46-.24 1.084-.298 1.744-.36.542-.053 1.104-.105 1.677-.26.365-.098.687-.24.99-.396.936.103 1.905.204 2.836.036 1.148-.207 1.982-.344 3.063-.344.76 0 1.55.048 2.35.095 1.744.102 3.546.208 5.258-.118.702-.132 1.287-.42 1.854-.697.295-.146.594-.296.912-.41.237-.087.495-.147.744-.207.275-.067.545-.135.784-.215.3-.098.53-.23.714-.34.084-.05.21-.122.254-.128.164.01.64.15.84.25.035.175.102.4.234.665.114.23.24.42.367.584l-.9.765-.163.003c-.685.017-1.395.034-2.116.18-.846.172-1.74.172-2.698.16-.607 0-1.21-.007-1.822.03-.876.057-1.622.298-2.344.53-.63.204-1.225.398-1.84.43l-.646.04c-.88.056-2.873-.124-2.873-.124l-1.442-.477zm-16.26 45.06c.12.393.22.73.24 1.068.035.714-.043 1.38-.127 2.083-.06.496-.116.996-.142 1.526-.114 2.42.078 4.488.604 6.504l.14.538.5.25c.027.015.055.026.083.04.5.565 1.28 1.217 2.02 1.636l-.246.008c-1.065.038-2.167.075-3.156-.03-.168-.02-.26-.047-.285-.047h-.003c-.024-.056-.077-.23-.103-.7-.02-.32.082-.745.188-1.194.177-.74.376-1.58.16-2.448-.153-.623-.14-1.268-.124-1.952.018-.855.04-1.825-.278-2.855-.162-.527-.417-1.054-.663-1.562-.336-.696-.685-1.417-.692-1.937-.02-1.44.166-2.822.364-4.285.223-1.64.454-3.338.37-5.146-.038-.84.007-2.64.055-4.543.028-1.124.05-2.088.063-2.943.292.646.604 1.266.96 1.787.43.632.924 1.172 1.403 1.696.22.24.434.476.635.71-.127 1.565-.21 2.66-.306 4.004s-.802 2.415-1.088 3.01c-.61 1.267-.897 1.86-.91 2.898-.012.734.175 1.346.338 1.886zM30.7 85.172c-.203.51-.54 1.147-.84 1.714-.168.318-.33.624-.463.896-.044.09-.126.26-.2.388-.012-.005-.022-.01-.033-.017-.052-.035-.1-.083-.152-.13-.195-.18-.464-.42-.843-.588-.272-.122-.56-.21-.85-.29.17-.12.337-.238.465-.325.347-.24.66-.46.863-.646 1.35-1.22 2.038-2.654 2.233-4.646.237-2.398.68-4.31 1.35-5.84.398-.917 1.093-1.678 1.828-2.485.653-.717 1.33-1.457 1.864-2.368.215-.364.382-.72.545-1.068.246-.528 1.408-3.48 1.758-4.2.58-1.2 1.994-4.127 2.173-4.75.24-.84.625-1.716 1.145-2.655v6.117c-.002.64.01 1.26.096 1.893-.453.72-.906 1.418-1.423 2.08-.558.712-1.18 1.37-1.84 2.066-.416.44-.83.88-1.228 1.33-1.043 1.18-1.342 2.427-1.605 3.525-.196.824-.366 1.532-.82 2.145-1.204 1.618-2.15 3.452-2.94 5.043-.304.608-.508 1.2-.705 1.77-.116.335-.234.68-.38 1.043zm49.13-62.347c.054-.066.104-.134.175-.194.366-.317.77-.54 1.196-.773.466-.257.966-.53 1.423-.936.482.55.79.947.98 1.236-.35.087-.703.19-1.024.317-.657.258-1.033.646-1.31.93-.103.107-.207.223-.35.33-.415.307-.973.454-1.618.627-.812.216-1.732.46-2.586 1.095-.245.184-.483.368-.723.552-.934.722-1.815 1.403-2.866 1.78-.564.2-1.08.41-1.58.613-1.064.433-1.983.806-3.155 1.007-1.302.223-2.172.91-2.94 1.52-.206.163-.397.302-.592.44-.32-.028-.638-.048-.94-.048-.01-.002-.016-.002-.022 0-.558 0-1.04-.178-1.65-.4-.395-.144-.795-.29-1.23-.398-.35-.09-.702-.134-1.05-.173.935-.022 1.89-.082 2.816-.454.57-.23 1.24-.353 1.95-.485.998-.184 2.03-.375 2.972-.89.637-.35 1.196-.733 1.738-1.104.846-.58 1.646-1.13 2.616-1.442.55-.18 1.194-.344 1.87-.52 1.793-.46 3.825-.984 5.205-1.963.333-.235.54-.485.694-.667zm-42.71 7.725c-.933-.45-1.882-.672-2.803-.872-.362-.078-.724-.156-1.08-.25-.77-.203-1.544-.377-2.318-.548-1.65-.368-3.21-.715-4.676-1.355-.676-.294-1.305-.72-1.97-1.17-.755-.513-1.535-1.04-2.465-1.44-.284-.12-.55-.27-.807-.44.062.033.125.064.19.093.854.395 1.775.434 2.588.47.546.022 1.06.044 1.463.165 1.193.356 2.31.97 3.49 1.616 1.242.682 2.527 1.386 3.974 1.82 1.6.478 3.24.785 4.824 1.082.935.175 1.843.346 2.73.545l-.08.003c-1.012.08-2.034.18-3.06.282zm-.523 2.518c.064.047.122.092.184.14.1.08.208.164.346.263.58.42 1.086.607 1.575.787.155.057.315.117.49.19.34.142.585.398.8.75-1.355-.034-2.767-.382-4.06-.708-1.105-.276-2.675-.28-3.674-.166-.646.077-1.166.308-1.583.492-.347.153-.62.275-.9.295-1.5.102-3.254-.18-4.857-.773-.873-.324-1.747-.45-2.61-.488.616-.052 1.213-.142 1.796-.23 1.013-.154 1.97-.298 2.904-.22 3.18.256 6.43-.027 9.59-.334zm7.365 22.586c-.042-.77-.086-1.565.073-2.104.245-.83.563-1.64.872-2.42.824-2.086 1.677-4.242 1.225-7.037-.165-1.018-.496-1.96-.816-2.873-.266-.757-.516-1.47-.66-2.19-.232-1.142-.683-1.888-1.118-2.61-.143-.238-.293-.487-.444-.767l-.45-.84-.09.023c-.336-.788-.802-1.566-1.55-2.142 1.13-.063 2.183-.066 3.157.025.288.028.608.07.948.115 1.187.154 2.598.315 3.8.084.237.015.466.02.685.018v.077c.187 0 .36-.018.543-.022.02 0 .04.008.06.008.04 0 .08-.012.118-.014.947-.03 1.86-.104 2.736-.188 1.46-.14 2.838-.273 4.333-.153.35.03.708.046 1.067.062.47.02.91.05 1.332.104-.39.23-.677.514-.897.75-.1.107-.235.253-.297.287-.05.03-.224.065-.35.09-.305.06-.683.136-1.073.357-2.127 1.204-1.526 3.024-1.204 4.003.017.044.028.086.043.13-.028.113-.062.232-.087.34-.04.166-.076.32-.117.46-.394 1.4-.754 2.838-.946 4.247-.003.024-.01.045-.014.07-.014.095-.014.184-.022.276-.15 1.287-.157 2.548.097 3.728.588 2.742.372 4.884.097 7.593l-.112 1.117c-.177 1.84-.195 3.723-.213 5.543-.008.82-.03 1.632-.054 2.445-.042-.057-.092-.11-.13-.168-1.024-1.504-1.785-4.148-2.29-5.9-.38-1.322-.56-1.924-.824-2.306-.29-.42-.734-.66-1.207-.66-.04 0-.08.002-.122.005-1.008.088-1.453 1.06-1.97 2.186-.137.3-.264.59-.38.774-.654 1.03-1.286 1.81-2.116 2.6-.604.576-1.118 1.193-1.594 1.822v-5.86c0-.342-.02-.71-.038-1.084zm3.99 19.4c.054-.55.29-.83.776-1.367.05-.054.1-.11.15-.167-.07.81-.18 1.62-.293 2.456-.085.64-.174 1.29-.244 1.95-.264-1.008-.474-1.966-.39-2.872zm.655 7.48l.015-.075c.158.396.343.777.517 1.14.215.445.418.867.525 1.217.2.65.187 1.312.17 2.08-.014.6-.027 1.265.075 1.97-.002-.002-.002-.005-.003-.008-.135-.354-.288-.717-.444-1.09-.562-1.337-1.144-2.72-1.046-4.025.03-.394.11-.8.19-1.208zm-4.938-5.476c.48-1.752.602-2.753.736-4.45s-.12-5.93-.12-5.93c-.01-.022-.012-.044-.02-.065.916-1.48 1.788-2.876 3.024-4.056.147-.14.282-.284.42-.425-.27 1.514-.405 2.794-.405 2.824-.007.582.088 1.365.198 2.27.143 1.18.382 3.15.15 3.76-.15.39-.413.68-.744 1.046-.568.623-1.274 1.397-1.406 2.787-.146 1.506.252 2.975.604 4.27.08.3.16.593.232.884.145.588.003 1.32-.147 2.092-.1.506-.193 1.007-.23 1.495-.142 1.894.59 3.63 1.232 5.16.146.348.29.69.415 1.018.105.273.145.64.187 1.026.064.597.138 1.273.46 1.963.035.072.073.143.113.21-.62-.05-1.317-.09-1.96-.124.006-.03.012-.06.02-.09.048-.218.102-.453.154-.77.157-.932.336-1.985-.18-3.268-.114-.285-.24-.565-.37-.85-.245-.54-.477-1.05-.607-1.592-.23-.953-.56-1.694-.873-2.412-.153-.344-.31-.7-.464-1.1-.695-1.79-.598-5.03-.42-5.672zm34.73-56.29c-.18.152-.32.313-.458.48-.106.125-.16.19-.23.24-1.01.715-2.81 1.18-4.396 1.59-.727.185-1.42.365-2.013.558-1.31.423-2.297 1.1-3.25 1.753-.49.336-.982.677-1.53.976-.595.325-1.394.474-2.238.63-.795.148-1.62.3-2.416.622-.643.256-1.472.27-2.352.286-.867.017-1.767.03-2.67.27-.572.15-1.072.436-1.512.687-.243.138-.5.282-.722.37 1.09-1.96 1.79-4.247 1.79-5.73 0-1.188-.347-2.29-.914-3.246h23.614c-.232.15-.466.312-.704.516zm-24.454 2.73c0 2.515-2.148 6.187-3.373 6.906-.218.03-.437.05-.655.062-1.276-.562-3.888-4.487-3.888-6.97 0-2.18 1.775-3.957 3.958-3.957s3.958 1.776 3.958 3.958zm-8.064 6.23c-.346-.146-.71-.333-.984-.48-.446-.236-.868-.46-1.29-.604-1.85-.635-3.77-.993-5.624-1.342-1.59-.297-3.096-.58-4.57-1.02-1.197-.36-2.313-.973-3.498-1.62-1.24-.68-2.524-1.385-3.966-1.815-.696-.208-1.39-.238-2.06-.267-.645-.027-1.253-.053-1.67-.246-.5-.23-.874-.656-1.306-1.15-.262-.3-.56-.63-.91-.932h24.48c-.566.956-.913 2.058-.913 3.246 0 1.72.957 4.223 2.312 6.23zm-28.516-7.88c.663-.134.918.06 1.695.952.24.274.507.58.822.872-.718-.52-1.54-1.06-2.652-1.34-.154-.037-.312-.07-.47-.103-.046-.01-.1-.02-.154-.033.118-.126.338-.267.76-.35zm-2.65 2.186c.476.374 1.074.503 1.547.603.123.025.25.05.37.082.804.2 1.405.646 2.104 1.162.59.436 1.26.93 2.105 1.294.713.307 1.364.746 2.054 1.213.728.494 1.48 1.004 2.363 1.39 1.32.576 2.68.938 4.02 1.25-.696-.007-1.394-.023-2.077-.08-1.21-.094-2.36.076-3.47.24-.742.113-1.443.22-2.137.24-1.136.037-1.996-.32-3.097-.768-.435-.178-.88-.358-1.357-.523-.26-.088-.727-.188-1.255-.29-.48-.094-1.44-.28-1.792-.44l-.643-.91V25.84c.406-.614.827-1.216 1.262-1.808zm5.944 9.812l-.26.008c-1.155.028-2.243.06-3.25-.21-.695-.185-1.362-.24-2.05-.274-.02-.053-.036-.106-.042-.167-.003-.027-.007-.056-.012-.083l.11-.587c.01-.118.018-.222.02-.316l.24.046c.39.077.736.14.927.204.434.15.838.314 1.23.474.947.382 1.918.78 3.087.906zm-7.206 1.905l1.098.055c.74.03 1.382.06 1.966.214 1.35.36 2.675.32 3.946.29 1.292-.038 2.516-.067 3.6.332 1.916.712 4.06 1.056 5.88.922.71-.048 1.272-.3 1.725-.498.334-.148.598-.266.874-.298.78-.09 2.024-.084 2.786.105 1.742.44 3.68.905 5.65.74.1.256.21.513.336.767.914 1.823 1.565 4.33 2.106 6.538.225.915-.147 2.004-.54 3.156-.19.56-.377 1.11-.503 1.644-.08.335-.154.673-.23 1.012-.33 1.516-.644 2.947-1.44 4.104-1.355 1.97-2.207 3.654-2.677 5.304-.22.776-1.194 2.55-1.73 4.08-.534 1.53-1.78 3.896-2.064 4.506-.132.28-.264.568-.437.86-.406.69-.968 1.307-1.56 1.958-.84.92-1.706 1.87-2.27 3.156-.772 1.77-1.277 3.925-1.54 6.585-.135 1.375-.552 2.264-1.438 3.066-.143.128-.364.275-.606.44-.487.336-1.032.713-1.443 1.16-4.53-3.173-8.437-7.175-11.494-11.79V35.75zm18.15 53.116c.124-.254.274-.537.433-.835.325-.617.696-1.318.948-1.945.16-.403.293-.785.42-1.155.188-.542.35-1.01.583-1.476.744-1.498 1.63-3.218 2.71-4.673.757-1.017 1.014-2.09 1.24-3.036.225-.94.42-1.752 1.057-2.473.378-.43.774-.847 1.17-1.264.67-.71 1.362-1.44 1.99-2.244.158-.204.293-.414.44-.62.082 3.366-.782 5.353-1.12 8.338-.232 2.04-.605 3.746.32 6.137.17.438.342.827.51 1.204.296.677.553 1.26.732 2 .185.766.49 1.438.758 2.03.113.25.228.497.328.748.256.64.17 1.157.025 2.008-.035.204-.078.396-.12.575-.084.38-.167.813-.142 1.247-4.484-.632-8.756-1.94-12.7-3.826.166-.25.305-.505.418-.734zM61.7 92.284c-.06-.103-.123-.204-.203-.312l-.137-.187-.193-.123c-1.088-.693-2.1-.52-2.837-.395-.44.073-.722.114-.962.045-.462-.14-1.526-1.007-1.797-1.41l-.23-.348c-.34-1.565-.457-3.204-.368-5.1.022-.47.076-.913.127-1.354.09-.774.186-1.575.14-2.495-.032-.638-.197-1.178-.342-1.655-.127-.423-.238-.788-.234-1.143.01-.67.25-1.513.695-2.44.553-1.15.894-3.436.856-4.652.73 1.613 1.242 3.326 1.673 4.987.468 1.81 1.626 3.302 2.56 4.503.427.552.645 1.1.9 1.73.194.484.415 1.035.748 1.607.56.96 1.327 1.626 2.007 2.214.713.618 1.328 1.15 1.677 1.942.15.345.252.792.36 1.265.116.52.247 1.093.476 1.643-1.596.654-3.235 1.214-4.917 1.678zm11.2-4.857c-.255.106-.51.213-.767.31-.636.247-1.295.5-2.032.914-.545.31-.95.53-1.348.63-.08-.265-.146-.558-.214-.857-.13-.565-.26-1.15-.507-1.71-.57-1.3-1.498-2.104-2.318-2.813-.61-.528-1.138-.985-1.49-1.59-.243-.42-.412-.842-.593-1.29-.28-.7-.602-1.497-1.24-2.32-.835-1.075-1.78-2.293-2.12-3.61-.666-2.572-1.497-5.288-3.05-7.71-.06-.092-.13-.17-.193-.26.006-.23.01-.46.014-.688.006-.31.01-.62.023-.93.06-1.212.072-2.444.084-3.68.012-1.282.045-2.586.114-3.872.286.52.55 1.02.667 1.5.232.96.72 1.76 1.148 2.47.368.606 1.627 2.81 2.012 4.41.384 1.603.123 3.784.372 4.773l.207.815c.43 1.608 1.342 2.876 2.225 4.1.302.42.604.84.883 1.272.756 1.177.942 2.197 1.18 3.49.087.478.18.98.303 1.52.21.9.556 2.066 1.396 3.095.093.112.188.24.286.374.505.673 1.13 1.51 2.082 1.686.725.13 1.52-.084 2.22-.277.296-.084.58-.17.875-.2.157-.016.36-.033.55-.044-.254.162-.506.332-.766.49zM87.075 20.25v1.945c-.5-.663-1.02-1.31-1.555-1.946h1.554zM50.044 6.13c11.468 0 21.918 4.43 29.742 11.66H53.02v.084c-.907-.49-1.93-.795-3.03-.795-1.11 0-2.142.308-3.054.808v-.098H20.303c7.823-7.23 18.272-11.66 29.74-11.66zm-36.59 14.12h1.115c-.382.454-.75.917-1.116 1.386V20.25zM6.177 50c0-7.184 1.745-13.962 4.82-19.95V69.95C7.92 63.962 6.176 57.184 6.176 50zm7.277 43.868V78.364c5.518 7.1 13.048 12.556 21.73 15.504h-21.73zm73.62 0H64.902c3.216-1.092 6.28-2.515 9.137-4.252.072-.03.136-.052.212-.087.49-.22 1.152-.526 1.612-1.084 4.303-2.9 8.094-6.502 11.21-10.642v16.064z"/></svg>